<?xml version="1.0" encoding="UTF-8"?>
<!DOCTYPE svg PUBLIC "-//W3C//DTD SVG 1.1//EN" "http://www.w3.org/Graphics/SVG/1.1/DTD/svg11.dtd">
<!-- Creator: CorelDRAW 2019 (64 Bit) -->
<svg xmlns="http://www.w3.org/2000/svg" xml:space="preserve" width="512px" height="313px" version="1.1" style="shape-rendering:geometricPrecision; text-rendering:geometricPrecision; image-rendering:optimizeQuality; fill-rule:evenodd; clip-rule:evenodd"
viewBox="0 0 510.32 311.81"
 xmlns:xlink="http://www.w3.org/1999/xlink">
 <defs>
  <style type="text/css">
   <![CDATA[
    .fil0 {fill:#676767}
    .fil1 {fill:#C1DB30}
   ]]>
  </style>
 </defs>
 <g id="Camada_x0020_1">
  <metadata id="CorelCorpID_0Corel-Layer"/>
  <g id="_2521058994240">
   <path class="fil0" d="M241.87 87.29l149.31 -0.01c-6.79,-24.4 -55.84,-69.88 -78.4,-74.22 -31.82,-0.7 -72.26,27.93 -70.91,74.23zm-129.1 0.01l78.69 0.07c5.47,-12.15 10.96,-19.76 18.07,-29.14 17.9,-23.62 51.99,-42.33 83.25,-47.56 7.59,-1.27 5.92,-0.77 13.43,-2.02 -24.63,-5.16 -37.65,-10.11 -65.92,-8.25 -19.3,1.27 -40.52,7.24 -56.02,15.15 -8.39,4.28 -15.05,8.01 -22.17,12.88 -18.06,12.36 -42.18,38.44 -49.33,58.87zm150.41 137.22l-149.31 0.01c6.79,24.4 55.84,69.88 78.4,74.21 31.82,0.71 72.26,-27.92 70.91,-74.22zm129.1 -0.01l-78.69 -0.07c-5.47,12.15 -10.96,19.76 -18.07,29.14 -17.9,23.61 -51.99,42.33 -83.25,47.56 -7.6,1.27 -5.92,0.77 -13.43,2.02 24.63,5.16 37.66,10.11 65.92,8.25 19.3,-1.28 40.52,-7.24 56.02,-15.15 8.39,-4.28 15.06,-8.01 22.17,-12.88 18.06,-12.36 42.18,-38.44 49.33,-58.87z"/>
   <path class="fil1" d="M479.47 100.57c-15.65,-1.68 -32.43,-1.16 -48.24,-0.7 -2.6,3.78 -37.17,103.76 -38.34,111.49 35.18,-0.56 67.51,4.42 91.52,-19.75 23.33,-23.48 46.36,-85.55 -4.94,-91.04zm-56.67 91.24l24.31 -72.11c37.87,-0.89 48.62,1.16 32.47,41.53 -4.19,10.46 -9.83,18.83 -16.58,23.24 -10.15,6.62 -26.87,7.44 -40.2,7.34zm-279.87 -72.35c11.77,-0.07 28.15,-1.7 32.97,3.05 6.43,6.33 -0.51,27.12 -17.9,28.24 -5.61,0.37 -8.07,0.11 -25.67,0.16l10.6 -31.45zm-16.83 50.8c24.21,2.08 61.78,2.19 73.2,-36.21 7.66,-25.6 -7.87,-34.8 -27.98,-34.79 -15.41,0.01 -33.48,0.59 -45.34,0.44l-38.17 111.22 23.59 -0.17 14.7 -40.49zm-126.1 22.76l0 18.27c32.26,0 60.07,3.53 79.89,-16.93 6.76,-6.97 15.3,-25.67 8.17,-35.86 -4.31,-6.17 -17.76,-11.76 -28.18,-13.46 -15.8,-2.58 -17.8,-14.55 -7.03,-21.78 15.16,-10.18 31.95,-4.33 56.13,-4.91l5.94 -18.64c-15.49,0.02 -40.08,-1.37 -54.5,0.64 -38.97,5.45 -52.14,46.6 -31.89,57.22 7.72,4.05 19.09,5.75 27.95,8.82 13.19,4.56 13.5,14.87 2.7,21.94 -14.54,9.51 -46.68,4.69 -59.18,4.69zm315.39 -77.81l-95.8 0.06 -3.93 11.95 194.13 0.05c1.63,-8.3 5.54,-17.96 8.22,-27.92l-96.57 0.45 -6.05 15.41zm87.94 26.82l-96.32 -0.1 -6.26 15.5 -95.79 -0.05 -3.67 11.92 193.52 -0.14 8.52 -27.13zm-13.99 41.73l-97.08 0.09 -5.83 15.56 -95.63 -0.11 -3.42 13.02 193.04 -1.01 8.92 -27.55z"/>
  </g>
 </g>
</svg>
