<?xml version="1.0" encoding="UTF-8"?>
<!DOCTYPE svg PUBLIC "-//W3C//DTD SVG 1.1//EN" "http://www.w3.org/Graphics/SVG/1.1/DTD/svg11.dtd">
<!-- Creator: CorelDRAW 2019 (64 Bit) -->
<svg xmlns="http://www.w3.org/2000/svg" xml:space="preserve" width="512px" height="137px" version="1.1" style="shape-rendering:geometricPrecision; text-rendering:geometricPrecision; image-rendering:optimizeQuality; fill-rule:evenodd; clip-rule:evenodd"
viewBox="0 0 662.6 177.24"
 xmlns:xlink="http://www.w3.org/1999/xlink">
 <defs>
  <style type="text/css">
   <![CDATA[
    .fil0 {fill:none}
    .fil1 {fill:#C1DB30;fill-rule:nonzero}
   ]]>
  </style>
 </defs>
 <g id="Camada_x0020_1">
  <metadata id="CorelCorpID_0Corel-Layer"/>
  <g id="_2519641977216">
   <rect class="fil0" width="662.6" height="177.24"/>
   <path class="fil1" d="M12.86 0l77.4 0c6.29,0 11.76,2.19 16.14,6.57 4.65,4.64 6.84,9.84 6.84,16.41l0 54.15c0,6.29 -2.19,11.77 -6.84,16.14 -4.38,4.65 -9.85,6.84 -16.14,6.84l-67.28 0 0 54.16 77.4 0c3.83,0 7.11,1.09 9.3,3.28 2.46,1.91 3.56,4.92 3.56,8.21 0,3.28 -1.1,6.29 -3.56,8.2 -2.46,2.19 -5.47,3.28 -9.3,3.28l-100.38 0 0 -77.13c0,-6.29 2.19,-11.76 6.84,-16.14 4.37,-4.65 9.84,-6.84 16.14,-6.84l67.28 0 0 -54.15 -77.4 0c-3.83,0 -7.12,-1.1 -9.3,-3.29 -2.47,-1.91 -3.56,-4.65 -3.56,-8.2 0,-3.28 1.09,-6.29 3.56,-8.21 2.46,-2.19 5.47,-3.28 9.3,-3.28zm179.15 22.98l0 131.29 67.29 0 0 -131.29 -67.29 0zm2.47 -22.98l62.36 0c8.2,0 14.5,2.19 18.87,6.57 4.38,4.37 6.57,10.66 6.57,18.87l0 126.37c0,8.2 -2.19,14.49 -6.57,18.87 -4.37,4.38 -10.67,6.56 -18.87,6.56l-62.36 0c-8.21,0 -14.5,-2.18 -18.88,-6.56 -4.37,-4.38 -6.56,-10.67 -6.56,-18.87l0 -126.37c0,-8.21 2.19,-14.5 6.56,-18.87 4.38,-4.38 10.67,-6.57 18.88,-6.57zm156.45 0l77.41 0c6.29,0 11.76,2.19 16.14,6.57 4.65,4.64 6.83,9.84 6.83,16.41l0 54.15c0,6.29 -2.18,11.77 -6.83,16.14 -4.38,4.65 -9.85,6.84 -16.14,6.84l-67.29 0 0 54.16 77.41 0c3.83,0 7.11,1.09 9.3,3.28 2.46,1.91 3.55,4.92 3.55,8.21 0,3.28 -1.09,6.29 -3.55,8.2 -2.46,2.19 -5.47,3.28 -9.3,3.28l-100.39 0 0 -77.13c0,-6.29 2.19,-11.76 6.84,-16.14 4.38,-4.65 9.85,-6.84 16.14,-6.84l67.29 0 0 -54.15 -77.41 0c-3.83,0 -7.11,-1.1 -9.3,-3.29 -2.46,-1.91 -3.56,-4.65 -3.56,-8.2 0,-3.28 1.1,-6.29 3.56,-8.21 2.46,-2.19 5.47,-3.28 9.3,-3.28zm169.04 0l77.4 0c6.3,0 11.77,2.19 16.14,6.57 4.65,4.64 6.84,9.84 6.84,16.41l0 54.15c0,6.29 -2.19,11.77 -6.84,16.14 -4.37,4.65 -9.84,6.84 -16.14,6.84l-67.28 0 0 54.16 77.41 0c3.83,0 7.11,1.09 9.3,3.28 2.46,1.91 3.55,4.92 3.55,8.21 0,3.28 -1.09,6.29 -3.55,8.2 -2.47,2.19 -5.47,3.28 -9.3,3.28l-100.39 0 0 -77.13c0,-6.29 2.19,-11.76 6.84,-16.14 4.38,-4.65 9.85,-6.84 16.14,-6.84l67.28 0 0 -54.15 -77.4 0c-3.83,0 -7.11,-1.1 -9.3,-3.29 -2.46,-1.91 -3.56,-4.65 -3.56,-8.2 0,-3.28 1.1,-6.29 3.56,-8.21 2.46,-2.19 5.47,-3.28 9.3,-3.28z"/>
  </g>
 </g>
</svg>
